<svg width="80.469" height="75" viewBox="0 0 80.469 75" xmlns="http://www.w3.org/2000/svg"><g id="svgGroup" stroke-linecap="round" fill-rule="evenodd" font-size="9pt" stroke="#4255ff" stroke-width="0" fill="#4255ff" style="stroke:#4255ff;stroke-width:0;fill:#4255ff"><path d="M 13.135 74.268 L 0 74.268 L 0 2.734 L 42.334 2.734 L 41.846 13.232 L 13.135 13.232 L 13.135 33.545 L 40.43 33.545 L 40.43 43.945 L 13.135 43.945 L 13.135 74.268 Z M 52.783 53.125 L 52.783 0.83 L 65.576 0 L 65.576 52.881 A 48.273 48.273 0 0 0 65.67 56.012 Q 65.975 60.681 67.27 62.648 A 4.785 4.785 0 0 0 67.285 62.671 Q 68.994 65.234 73.926 65.234 Q 76.367 65.234 80.127 64.697 L 80.469 73.828 A 0.255 0.255 0 0 0 80.439 73.832 Q 80.276 73.859 79.272 74.072 A 48.26 48.26 0 0 1 77.64 74.391 A 41.619 41.619 0 0 1 77.075 74.487 Q 76.078 74.65 74.573 74.812 A 86.406 86.406 0 0 1 74.414 74.829 Q 72.803 75 71.436 75 A 38.872 38.872 0 0 1 67.637 74.826 Q 65.776 74.642 64.194 74.267 A 18.377 18.377 0 0 1 62.28 73.706 A 12.844 12.844 0 0 1 58.762 71.831 A 11.238 11.238 0 0 1 56.543 69.58 A 16.226 16.226 0 0 1 54.181 64.954 A 20.107 20.107 0 0 1 53.613 62.842 Q 52.783 58.936 52.783 53.125 Z"/></g></svg>